<svg width="12" height="16" viewBox="0 0 12 16" fill="none" xmlns="http://www.w3.org/2000/svg">
<path fill-rule="evenodd" clip-rule="evenodd" d="M4 2C4 0.895431 4.89543 0 6 0C7.10457 0 8 0.895431 8 2V6.25L11.4 8.8C11.7777 9.08328 12 9.52786 12 10V12.2215L8 10.7215V12.8486L8.74808 13.9707C8.91234 14.2171 9 14.5066 9 14.8028V16H3V14.8028C3 14.5066 3.08766 14.2171 3.25192 13.9707L4 12.8486V10.7215L0 12.2215V10C0 9.52786 0.222291 9.08328 0.6 8.8L4 6.25V2ZM6 1C5.44772 1 5 1.44772 5 2V6.75L1.2 9.6C1.0741 9.69443 1 9.84262 1 10V10.7785L5 9.2785V13.1514L4.08397 14.5254C4.02922 14.6076 4 14.7041 4 14.8028V15H8V14.8028C8 14.7041 7.97078 14.6076 7.91603 14.5254L7 13.1514V9.2785L11 10.7785V10C11 9.84262 10.9259 9.69443 10.8 9.6L7 6.75V2C7 1.44772 6.55228 1 6 1Z" fill="#2F3744"/>
</svg>
