<svg width="14" height="14" viewBox="0 0 14 14" fill="none" xmlns="http://www.w3.org/2000/svg">
<path fill-rule="evenodd" clip-rule="evenodd" d="M3 1C2.44772 1 2 1.44772 2 2C2 2.55228 2.44772 3 3 3C3.55228 3 4 2.55228 4 2C4 1.44772 3.55228 1 3 1ZM1 2C1 0.89543 1.89543 0 3 0C4.10457 0 5 0.89543 5 2C5 3.10457 4.10457 4 3 4C1.89543 4 1 3.10457 1 2ZM9.5 4C8.67157 4 8 4.67157 8 5.5C8 6.32843 8.67157 7 9.5 7C10.3284 7 11 6.32843 11 5.5C11 4.67157 10.3284 4 9.5 4ZM7 5.5C7 4.11929 8.11929 3 9.5 3C10.8807 3 12 4.11929 12 5.5C12 6.88071 10.8807 8 9.5 8C8.11929 8 7 6.88071 7 5.5ZM0 7.5C0 6.11929 1.11929 5 2.5 5H3.5C4.88071 5 6 6.11929 6 7.5V9H5V7.5C5 6.67157 4.32843 6 3.5 6H2.5C1.67157 6 1 6.67157 1 7.5V9H0V7.5ZM5 12.5C5 10.567 6.567 9 8.5 9H10.5C12.433 9 14 10.567 14 12.5V14H13V12.5C13 11.1193 11.8807 10 10.5 10H8.5C7.11929 10 6 11.1193 6 12.5V14H5V12.5Z" fill="#2F3744"/>
</svg>
