<svg width="16" height="14" viewBox="0 0 16 14" fill="none" xmlns="http://www.w3.org/2000/svg">
<path fill-rule="evenodd" clip-rule="evenodd" d="M1.21922 1H0V0H1.21922C1.90753 0 2.5075 0.468446 2.67444 1.1362L2.76539 1.5H13.646C14.6552 1.5 15.3765 2.47655 15.0797 3.44113L13.6951 7.94113C13.5014 8.57052 12.9199 9 12.2614 9H4.64039L4.79571 9.62127C4.85135 9.84385 5.05134 10 5.28078 10H13V11H5.28078C4.59248 11 3.9925 10.5316 3.82556 9.8638L1.70429 1.37873C1.64865 1.15615 1.44866 1 1.21922 1ZM4.39039 8H12.2614C12.4809 8 12.6748 7.85684 12.7393 7.64704L14.1239 3.14704C14.2229 2.82552 13.9824 2.5 13.646 2.5H3.01539L4.39039 8ZM4 13C4 12.4477 4.44772 12 5 12C5.55228 12 6 12.4477 6 13C6 13.5523 5.55228 14 5 14C4.44772 14 4 13.5523 4 13ZM11 13C11 12.4477 11.4477 12 12 12C12.5523 12 13 12.4477 13 13C13 13.5523 12.5523 14 12 14C11.4477 14 11 13.5523 11 13Z" fill="#2F3744"/>
</svg>
