<svg width="36" height="36" viewBox="0 0 36 36" fill="none" xmlns="http://www.w3.org/2000/svg">
<g clip-path="url(#clip0_6246_192680)">
<rect width="36" height="36" rx="6" fill="#1A1F26"/>
<path fill-rule="evenodd" clip-rule="evenodd" d="M21.6156 11.0369C20.6949 11.2161 20 12.0269 20 13C20 14.1046 20.8954 15 22 15H23V16C23 17.1046 23.8954 18 25 18C25.3643 18 25.7058 17.9026 26 17.7324V27H16.0182H14.9909C12.2412 27 10 24.7484 10 22.0091C10 19.2594 12.2516 17.0182 14.9909 17.0182H16.0182V15.9909C16.0182 13.2412 18.2698 11 21.0091 11C21.2143 11 21.4167 11.0125 21.6156 11.0369Z" fill="#A3A3A3"/>
<path d="M26 10C26 9.44772 25.5523 9 25 9C24.4477 9 24 9.44772 24 10V12H22C21.4477 12 21 12.4477 21 13C21 13.5523 21.4477 14 22 14H24V16C24 16.5523 24.4477 17 25 17C25.5523 17 26 16.5523 26 16V14H28C28.5523 14 29 13.5523 29 13C29 12.4477 28.5523 12 28 12H26V10Z" fill="#A3A3A3"/>
</g>
<defs>
<clipPath id="clip0_6246_192680">
<rect width="36" height="36" rx="6" fill="white"/>
</clipPath>
</defs>
</svg>
