<svg width="36" height="36" viewBox="0 0 36 36" fill="none" xmlns="http://www.w3.org/2000/svg">
<g clip-path="url(#clip0_4586_144559)">
<rect width="36" height="36" rx="6" fill="#1A1F26"/>
<path d="M19.2483 11.9964C19.7456 11.6052 20.065 10.9979 20.065 10.3161C20.065 9.1359 19.1083 8.1792 17.9281 8.1792C16.748 8.1792 15.7913 9.1359 15.7913 10.3161C15.7913 10.9979 16.1106 11.6051 16.6078 11.9964C15.1927 12.4149 14.059 13.4892 13.5588 14.8673C13.4653 15.1248 13.525 15.4118 13.7086 15.6151C14.7489 16.7668 16.254 17.4905 17.9282 17.4905C19.6022 17.4905 21.1071 16.7669 22.1474 15.6155C22.3311 15.4122 22.3908 15.1252 22.2973 14.8677C21.7972 13.4895 20.6635 12.4151 19.2483 11.9964Z" fill="#A3A3A3"/>
<path d="M24.7144 21.661C25.2117 21.2697 25.531 20.6625 25.531 19.9806C25.531 18.8005 24.5743 17.8438 23.3942 17.8438C22.214 17.8438 21.2573 18.8005 21.2573 19.9806C21.2573 20.6624 21.5766 21.2697 22.0739 21.6609C20.6587 22.0795 19.5251 23.1537 19.0249 24.5318C18.9314 24.7893 18.9911 25.0764 19.1747 25.2797C20.215 26.4313 21.7201 27.1551 23.3943 27.1551C25.0682 27.1551 26.5732 26.4315 27.6135 25.2801C27.7971 25.0768 27.8568 24.7898 27.7634 24.5322C27.2633 23.154 26.1296 22.0796 24.7144 21.661Z" fill="#A3A3A3"/>
<path d="M13.7825 21.661C14.2798 21.2697 14.5992 20.6625 14.5992 19.9806C14.5992 18.8005 13.6425 17.8438 12.4623 17.8438C11.2821 17.8438 10.3254 18.8005 10.3254 19.9806C10.3254 20.6624 10.6448 21.2697 11.142 21.6609C9.72685 22.0795 8.5932 23.1537 8.09297 24.5318C7.9995 24.7893 8.05918 25.0764 8.24282 25.2797C9.2831 26.4313 10.7882 27.1551 12.4624 27.1551C14.1363 27.1551 15.6413 26.4315 16.6816 25.2801C16.8652 25.0768 16.925 24.7898 16.8315 24.5322C16.3314 23.154 15.1977 22.0796 13.7825 21.661Z" fill="#A3A3A3"/>
</g>
<defs>
<clipPath id="clip0_4586_144559">
<rect width="36" height="36" rx="6" fill="white"/>
</clipPath>
</defs>
</svg>
