<svg width="36" height="36" viewBox="0 0 36 36" fill="none" xmlns="http://www.w3.org/2000/svg">
<g clip-path="url(#clip0_4586_144553)">
<rect width="36" height="36" rx="6" fill="#1A1F26"/>
<rect x="9.00012" y="8.99951" width="18" height="18" rx="2" fill="#A3A3A3"/>
<path d="M11 20.3964C12.4684 19.6292 13.1748 20.8932 14.6432 20.126C16.1172 19.3587 15.4108 18.0947 16.8848 17.3274C18.3532 16.5601 19.0596 17.8242 20.528 17.0569C21.9964 16.2897 21.2956 15.0256 22.7696 14.2584C23.6873 13.7781 24.3103 14.0928 25 14.2087V24.0616C25 24.575 24.5773 25 24.0544 25H11.9456C11.4227 25 11 24.575 11 24.0616V20.3964Z" fill="#1A1F26"/>
<circle cx="13" cy="12.9995" r="2" fill="#1A1F26"/>
</g>
<defs>
<clipPath id="clip0_4586_144553">
<rect width="36" height="36" rx="6" fill="white"/>
</clipPath>
</defs>
</svg>
