<svg width="36" height="36" viewBox="0 0 36 36" fill="none" xmlns="http://www.w3.org/2000/svg">
<g clip-path="url(#clip0_4586_144551)">
<rect width="36" height="36" rx="6" fill="#1A1F26"/>
<path fill-rule="evenodd" clip-rule="evenodd" d="M9 11C9 9.89543 9.89543 9 11 9H15C16.1046 9 17 9.89543 17 11V17C17 18.1046 16.1046 19 15 19H11C9.89543 19 9 18.1046 9 17V11ZM19 19C19 17.8954 19.8954 17 21 17H25C26.1046 17 27 17.8954 27 19V25C27 26.1046 26.1046 27 25 27H21C19.8954 27 19 26.1046 19 25V19ZM11 21C9.89543 21 9 21.8954 9 23V25C9 26.1046 9.89543 27 11 27H15C16.1046 27 17 26.1046 17 25V23C17 21.8954 16.1046 21 15 21H11Z" fill="#A3A3A3"/>
<circle cx="23" cy="12" r="3" fill="#A3A3A3"/>
</g>
<defs>
<clipPath id="clip0_4586_144551">
<rect width="36" height="36" rx="6" fill="white"/>
</clipPath>
</defs>
</svg>
