<svg width="14" height="14" viewBox="0 0 14 14" fill="none" xmlns="http://www.w3.org/2000/svg">
<path fill-rule="evenodd" clip-rule="evenodd" d="M0 2.5C0 1.11929 1.11929 0 2.5 0H11.5C12.8807 0 14 1.11929 14 2.5V11.5C14 12.8807 12.8807 14 11.5 14H2.5C1.11929 14 0 12.8807 0 11.5V2.5ZM2.5 1C1.67157 1 1 1.67157 1 2.5V9H5C5 10.1046 5.89543 11 7 11C8.10457 11 9 10.1046 9 9H13V2.5C13 1.67157 12.3284 1 11.5 1H2.5ZM9.82929 10C9.41746 11.1652 8.30622 12 7 12C5.69378 12 4.58254 11.1652 4.17071 10H1V11.5C1 12.3284 1.67157 13 2.5 13H11.5C12.3284 13 13 12.3284 13 11.5V10H9.82929Z" fill="#2F3744"/>
</svg>
