<svg width="36" height="36" viewBox="0 0 36 36" fill="none" xmlns="http://www.w3.org/2000/svg">
<g clip-path="url(#clip0_4586_144556)">
<rect width="36" height="36" rx="6" fill="#1A1F26"/>
<circle cx="18" cy="18" r="10" fill="#A3A3A3"/>
<path fill-rule="evenodd" clip-rule="evenodd" d="M19.3202 17.5004C19.8175 17.1092 20.1369 16.5019 20.1369 15.8201C20.1369 14.6399 19.1802 13.6832 18 13.6832C16.8199 13.6832 15.8632 14.6399 15.8632 15.8201C15.8632 16.5019 16.1825 17.1091 16.6797 17.5004C15.2646 17.9189 14.1309 18.9932 13.6307 20.3713C13.5372 20.6288 13.5969 20.9158 13.7805 21.1191C14.8208 22.2708 16.3259 22.9945 18.0001 22.9945C19.6741 22.9945 21.179 22.271 22.2193 21.1195C22.403 20.9163 22.4627 20.6292 22.3692 20.3717C21.8691 18.9935 20.7354 17.9191 19.3202 17.5004Z" fill="#1A1F26"/>
<path d="M16.1636 11.0919C16.1636 9.69808 15.0486 8.58301 13.6547 8.58301C12.8184 8.58301 12.0518 9.00116 11.564 9.69808C11.0762 9.07085 10.3095 8.58301 9.47325 8.58301C8.07942 8.58301 6.96436 9.69808 6.96436 11.0919C6.96436 11.2313 6.96436 11.301 6.96436 11.4404C6.96436 11.4404 6.96435 11.5797 7.03405 11.8585C7.03405 11.8585 7.03405 11.8585 7.03405 11.9282C7.17343 12.416 7.59158 13.2523 8.56726 14.3674C10.2399 16.2491 11.564 16.5975 11.564 16.5975C11.564 16.5975 12.8881 16.2491 14.5607 14.3674C15.5364 13.2523 15.9546 12.416 16.0939 11.9282C16.0939 11.9282 16.0939 11.9282 16.0939 11.8585C16.1636 11.5797 16.1636 11.4404 16.1636 11.4404C16.1636 11.301 16.1636 11.2313 16.1636 11.0919Z" fill="#A3A3A3"/>
<path d="M16.1637 11.0918C16.1637 9.69795 15.0487 8.58289 13.6549 8.58289C12.8186 8.58289 12.052 9.00104 11.5641 9.69795C11.0763 9.07073 10.3097 8.58289 9.47337 8.58289C8.07954 8.58289 6.96448 9.69795 6.96448 11.0918C6.96448 11.2312 6.96448 11.3009 6.96448 11.4402C6.96448 11.4402 6.96448 11.5796 7.03417 11.8584C7.03417 11.8584 7.03417 11.8584 7.03417 11.9281C7.17355 12.4159 7.5917 13.2522 8.56738 14.3673C10.24 16.2489 11.5641 16.5974 11.5641 16.5974C11.5641 16.5974 12.8883 16.2489 14.5608 14.3673C15.5365 13.2522 15.9547 12.4159 16.0941 11.9281C16.0941 11.9281 16.0941 11.9281 16.0941 11.8584C16.1637 11.5796 16.1637 11.4402 16.1637 11.4402C16.1637 11.3009 16.1637 11.2312 16.1637 11.0918Z" stroke="#1A1F26" stroke-width="0.8"/>
</g>
<defs>
<clipPath id="clip0_4586_144556">
<rect width="36" height="36" rx="6" fill="white"/>
</clipPath>
</defs>
</svg>
