<svg width="37" height="36" viewBox="0 0 37 36" fill="none" xmlns="http://www.w3.org/2000/svg">
<g clip-path="url(#clip0_4578_385)">
<rect width="36.0012" height="36.0006" rx="6" fill="#1A1F26"/>
<path d="M11.4393 12.5617C8.44682 12.5617 6 15.0085 6 18.001C6 20.9936 8.44682 23.4404 11.4393 23.4404H12.5612V12.5617H11.4393Z" fill="#69BAE8"/>
<path d="M24.5619 12.5617H23.44V23.4404H24.5619C27.5544 23.4404 30.0012 20.9936 30.0012 18.001C30.0012 15.0085 27.5544 12.5617 24.5619 12.5617Z" fill="#485DAA"/>
<path d="M23.4398 11.4393C23.4398 8.44682 20.993 6 18.0005 6C15.008 6 12.5612 8.44682 12.5612 11.4393V12.5612H23.4398V11.4393Z" fill="#69BAE8"/>
<path d="M12.7285 25.8684C13.3199 28.2315 15.4596 30.0006 18.0003 30.0006C20.9929 30.0006 23.4397 27.5538 23.4397 24.5613V23.4394H15.1576L12.7285 25.8684Z" fill="#485DAA"/>
<path d="M12.5612 12.5617V23.4404V24.5623C12.5612 25.0141 12.6221 25.4506 12.7287 25.8694L15.1577 23.4404H23.4398V12.5617H12.5612Z" fill="#003A5D"/>
</g>
<defs>
<clipPath id="clip0_4578_385">
<rect width="36.0012" height="36.0006" rx="6" fill="white"/>
</clipPath>
</defs>
</svg>
