<svg width="12" height="16" viewBox="0 0 12 16" fill="none" xmlns="http://www.w3.org/2000/svg">
<path d="M3 8H9V7H3V8Z" fill="#2F3744"/>
<path d="M9 10H3V9H9V10Z" fill="#2F3744"/>
<path d="M3 12H6V11H3V12Z" fill="#2F3744"/>
<path fill-rule="evenodd" clip-rule="evenodd" d="M3.0607 0.732233L2.79293 1H2.5C1.11929 1 0 2.11929 0 3.5V13.5C0 14.8807 1.11929 16 2.5 16H9.5C10.8807 16 12 14.8807 12 13.5V3.5C12 2.11929 10.8807 1 9.5 1H9.20714L8.93938 0.732233C8.47054 0.263392 7.83465 0 7.17161 0H4.82846C4.16542 0 3.52954 0.263392 3.0607 0.732233ZM4.82846 1C4.43064 1 4.04911 1.15804 3.76781 1.43934L3.74598 1.46117C3.78326 1.51948 3.81485 1.58226 3.83983 1.64888L4.3465 3H7.6535L8.16017 1.64888C8.18516 1.58224 8.21676 1.51945 8.25405 1.46112L8.23227 1.43934C7.95097 1.15804 7.56944 1 7.17161 1H4.82846ZM2.5 2C1.67157 2 1 2.67157 1 3.5V13.5C1 14.3284 1.67157 15 2.5 15H9.5C10.3284 15 11 14.3284 11 13.5V3.5C11 2.67157 10.3284 2 9.5 2H9.0965L8.58983 3.35112C8.44347 3.74143 8.07034 4 7.6535 4H4.3465C3.92966 4 3.55654 3.74143 3.41017 3.35112L2.9035 2H2.5Z" fill="#2F3744"/>
</svg>
