<svg width="14" height="14" viewBox="0 0 14 14" fill="none" xmlns="http://www.w3.org/2000/svg">
<path fill-rule="evenodd" clip-rule="evenodd" d="M0 2.5C0 1.11929 1.11929 0 2.5 0H11.5C12.8807 0 14 1.11929 14 2.5V11.5C14 12.8807 12.8807 14 11.5 14H2.5C1.11929 14 0 12.8807 0 11.5V2.5ZM2.5 1C1.67157 1 1 1.67157 1 2.5V11.5C1 12.3284 1.67157 13 2.5 13H11.5C12.3284 13 13 12.3284 13 11.5V2.5C13 1.67157 12.3284 1 11.5 1H2.5ZM7 3.99997H11V7.99997H10V5.70708L6.56066 9.14643C5.97487 9.73222 5.02513 9.73222 4.43934 9.14643L2.64645 7.35354L3.35355 6.64643L5.14645 8.43933C5.34171 8.63459 5.65829 8.63459 5.85355 8.43933L9.2929 4.99997H7V3.99997Z" fill="#2F3744"/>
</svg>
