<svg width="36" height="36" viewBox="0 0 36 36" fill="none" xmlns="http://www.w3.org/2000/svg">
<g clip-path="url(#clip0_4586_144560)">
<rect width="36" height="36" rx="6" fill="#1A1F26"/>
<path fill-rule="evenodd" clip-rule="evenodd" d="M13.5 6.99854C12.6716 6.99854 12 7.67011 12 8.49854V8.99854H11C9.89543 8.99854 9 9.89397 9 10.9985V24.9985C9 26.1031 9.89543 26.9985 11 26.9985H25C26.1046 26.9985 27 26.1031 27 24.9985V10.9985C27 9.89397 26.1046 8.99854 25 8.99854H24V8.49854C24 7.67011 23.3284 6.99854 22.5 6.99854C21.6716 6.99854 21 7.67011 21 8.49854V8.99854H15V8.49854C15 7.67011 14.3284 6.99854 13.5 6.99854ZM18 25C21.866 25 25 21.866 25 18C25 14.134 21.866 11 18 11C14.134 11 11 14.134 11 18C11 21.866 14.134 25 18 25Z" fill="#A3A3A3"/>
<path d="M15.9858 21.0796C15.5426 21.0796 15.1496 21.0038 14.8068 20.8523C14.4659 20.6989 14.197 20.4877 14 20.2188C13.803 19.9498 13.7026 19.6402 13.6989 19.2898H15.1136C15.1193 19.4167 15.16 19.5294 15.2358 19.6279C15.3115 19.7245 15.4148 19.8002 15.5454 19.8551C15.6761 19.9101 15.8248 19.9375 15.9915 19.9375C16.1581 19.9375 16.3049 19.9082 16.4318 19.8495C16.5606 19.7888 16.661 19.7065 16.7329 19.6023C16.8049 19.4962 16.84 19.375 16.8381 19.2387C16.84 19.1023 16.8011 18.9811 16.7216 18.875C16.642 18.769 16.5293 18.6866 16.3835 18.6279C16.2396 18.5692 16.0691 18.5398 15.8721 18.5398H15.3068V17.5398H15.8721C16.0445 17.5398 16.196 17.5114 16.3267 17.4546C16.4593 17.3977 16.5625 17.3182 16.6364 17.2159C16.7102 17.1118 16.7462 16.9924 16.7443 16.858C16.7462 16.7273 16.715 16.6127 16.6506 16.5142C16.5881 16.4138 16.5 16.3362 16.3864 16.2813C16.2746 16.2263 16.1449 16.1989 15.9971 16.1989C15.8418 16.1989 15.7007 16.2263 15.5739 16.2813C15.4489 16.3362 15.3494 16.4138 15.2756 16.5142C15.2017 16.6146 15.1629 16.7311 15.1591 16.8637H13.8153C13.8191 16.5171 13.9157 16.2121 14.1051 15.9489C14.2945 15.6837 14.5521 15.4763 14.8778 15.3267C15.2055 15.1771 15.5786 15.1023 15.9971 15.1023C16.4138 15.1023 16.7803 15.1752 17.0966 15.321C17.4129 15.4669 17.6591 15.6657 17.8352 15.9176C18.0114 16.1676 18.0994 16.4508 18.0994 16.7671C18.1013 17.0947 17.9943 17.3646 17.7784 17.5767C17.5644 17.7888 17.2888 17.9195 16.9517 17.9688V18.0142C17.4025 18.0673 17.7424 18.2131 17.9716 18.4517C18.2026 18.6904 18.3172 18.9887 18.3153 19.3466C18.3153 19.6837 18.2159 19.983 18.017 20.2443C17.8201 20.5038 17.5454 20.7084 17.1932 20.858C16.8428 21.0057 16.4403 21.0796 15.9858 21.0796Z" fill="#A3A3A3"/>
<path d="M21.799 15.1818V21H20.3956V16.4943H20.3615L19.0604 17.2898V16.0739L20.495 15.1818H21.799Z" fill="#A3A3A3"/>
</g>
<defs>
<clipPath id="clip0_4586_144560">
<rect width="36" height="36" rx="6" fill="white"/>
</clipPath>
</defs>
</svg>
