<svg width="36" height="36" viewBox="0 0 36 36" fill="none" xmlns="http://www.w3.org/2000/svg">
<g clip-path="url(#clip0_4586_144753)">
<rect width="36" height="36" rx="6" fill="#1A1F26"/>
<path d="M27.7288 20.3719L26.7875 19.5601C26.5078 19.3188 26.3001 18.8254 26.3272 18.4644L26.3291 17.5338C26.3029 17.1719 26.5096 16.6794 26.7894 16.4381L27.7288 15.6281C28.0086 15.3868 28.0844 14.9324 27.8973 14.6186L25.9697 11.3832C25.7826 11.0694 25.3391 10.9052 24.9835 11.0195L23.7896 11.4032C23.435 11.5175 22.8904 11.4449 22.5797 11.2417L21.7479 10.78C21.412 10.6213 21.0751 10.2005 20.9994 9.84581L20.7449 8.64581C20.67 8.29116 20.3023 8 19.928 8H16.0739C15.6996 8 15.3319 8.29116 15.2561 8.64581L15.0006 9.84127C14.9249 10.1968 14.588 10.6168 14.2521 10.7764L13.4221 11.2408C13.1115 11.444 12.5678 11.5156 12.2123 11.4014L11.0165 11.0177C10.6609 10.9034 10.2174 11.0676 10.0302 11.3814L8.10366 14.6168C7.91652 14.9306 7.99231 15.385 8.27115 15.6263L9.21246 16.4381C9.49223 16.6794 9.69902 17.1728 9.67282 17.5347L9.67001 18.4644C9.69621 18.8263 9.48848 19.3197 9.20965 19.561L8.27115 20.3719C7.99138 20.6132 7.91559 21.0676 8.10273 21.3814L10.0302 24.6168C10.2174 24.9306 10.6609 25.0939 11.0155 24.9805L12.2085 24.5977C12.5632 24.4834 13.1077 24.556 13.4184 24.7592L14.2502 25.2209C14.5871 25.3796 14.9239 25.8005 14.9997 26.156L15.2551 27.3542C15.3309 27.7088 15.6987 28 16.0729 28H19.9271C20.3013 28 20.6691 27.7098 20.7449 27.3542L21.0003 26.1587C21.0761 25.8032 21.4129 25.3832 21.7488 25.2236L22.5788 24.7592C22.8895 24.5569 23.4331 24.4844 23.7887 24.5986L24.9845 24.9823C25.34 25.0957 25.7835 24.9324 25.9697 24.6186L27.8973 21.3832C28.0844 21.0676 28.0086 20.6132 27.7288 20.3719ZM18.0005 23.61C14.8041 23.61 12.2132 21.0975 12.2132 17.9991C12.2132 14.9007 14.8041 12.3882 18.0005 12.3882C21.1968 12.3882 23.7877 14.8998 23.7877 17.9991C23.7877 21.0984 21.1968 23.61 18.0005 23.61Z" fill="#A3A3A3"/>
<path d="M18.0009 15.5C16.6205 15.5 15.5009 16.6198 15.5009 18.0005C15.5009 19.3811 16.6205 20.5 18.0009 20.5C19.3813 20.5 20.5009 19.3811 20.5009 18.0005C20.5009 16.6189 19.3813 15.5 18.0009 15.5Z" fill="#A3A3A3"/>
</g>
<defs>
<clipPath id="clip0_4586_144753">
<rect width="36" height="36" rx="6" fill="white"/>
</clipPath>
</defs>
</svg>
