<svg width="36" height="36" viewBox="0 0 36 36" fill="none" xmlns="http://www.w3.org/2000/svg">
<g clip-path="url(#clip0_4586_144550)">
<rect width="36" height="36" rx="6" fill="#1A1F26"/>
<path d="M18.8496 9.41208L13.8903 14.5566C13.5591 14.9002 13.3711 15.3738 13.3711 15.8659V25.1428C13.3711 26.1642 14.1768 27 15.1614 27H23.218C23.9342 27 24.5787 26.5543 24.8652 25.8764L27.7834 18.8096C28.5354 16.971 27.2374 14.928 25.3127 14.928H20.255L21.1054 10.675C21.1949 10.2107 21.0607 9.73709 20.7384 9.40279C20.2102 8.8642 19.3688 8.8642 18.8496 9.41208Z" fill="#A3A3A3"/>
<path d="M12 24.3333C12 25.25 11.1 26 10 26C8.9 26 8 25.25 8 24.3333V17.6667C8 16.75 8.9 16 10 16C11.1 16 12 16.75 12 17.6667V24.3333Z" fill="#A3A3A3"/>
</g>
<defs>
<clipPath id="clip0_4586_144550">
<rect width="36" height="36" rx="6" fill="white"/>
</clipPath>
</defs>
</svg>
