<svg width="16" height="12" viewBox="0 0 16 12" fill="none" xmlns="http://www.w3.org/2000/svg">
<path fill-rule="evenodd" clip-rule="evenodd" d="M2.02656e-06 2.5C2.02656e-06 1.11929 1.11929 0 2.5 0H13.5C14.8807 0 16 1.11929 16 2.5V4C15.4696 4 14.9609 4.21071 14.5858 4.58579C14.2107 4.96086 14 5.46957 14 6C14 6.53043 14.2107 7.03914 14.5858 7.41421C14.9609 7.78929 15.4696 8 16 8V9.5C16 10.8807 14.8807 12 13.5 12H2.5C1.11929 12 2.02656e-06 10.8807 2.02656e-06 9.5L0 8C0.262644 8 0.522716 7.94827 0.765368 7.84776C1.00802 7.74725 1.2285 7.59993 1.41421 7.41421C1.59993 7.2285 1.74725 7.00802 1.84776 6.76537C1.94827 6.52272 2 6.26264 2 6C2 5.73736 1.94827 5.47728 1.84776 5.23463C1.74725 4.99198 1.59993 4.7715 1.41422 4.58579C1.2285 4.40007 1.00802 4.25275 0.765369 4.15224C0.522718 4.05173 0.262646 4 2.06036e-06 4L2.02656e-06 2.5ZM1 3.17157C1.04979 3.18917 1.09916 3.20811 1.14805 3.22836C1.51203 3.37913 1.84275 3.6001 2.12132 3.87868C2.3999 4.15726 2.62088 4.48797 2.77164 4.85195C2.92241 5.21593 3 5.60604 3 6C3 6.39397 2.9224 6.78407 2.77164 7.14805C2.62088 7.51203 2.3999 7.84275 2.12132 8.12132C1.84275 8.3999 1.51203 8.62088 1.14805 8.77164C1.09915 8.79189 1.04979 8.81083 1 8.82843V9.5C1 10.3284 1.67157 11 2.5 11H10V9H11V11H13.5C14.3284 11 15 10.3284 15 9.5V8.82843C14.5821 8.68067 14.1981 8.44073 13.8787 8.12132C13.3161 7.55871 13 6.79565 13 6C13 5.20435 13.3161 4.44129 13.8787 3.87868C14.1981 3.55927 14.5821 3.31933 15 3.17157V2.5C15 1.67157 14.3284 1 13.5 1H11V3H10V1H2.5C1.67158 1 1 1.67157 1 2.5V3.17157ZM10 7V5H11V7H10Z" fill="#2F3744"/>
</svg>
