<svg width="16" height="16" viewBox="0 0 16 16" fill="none" xmlns="http://www.w3.org/2000/svg">
<path fill-rule="evenodd" clip-rule="evenodd" d="M6.86335 2.09284C5.42821 2.32897 4.09187 3.00847 3.05009 4.05025C2.09068 5.00966 1.43852 6.2189 1.15696 7.52505C1.18723 7.50591 1.21818 7.48719 1.24983 7.46891C1.7819 7.16172 2.38546 7 2.99983 7C3.61421 7 4.21777 7.16172 4.74983 7.46891C4.86428 7.53498 4.96924 7.60674 5.06619 7.68314C5.13071 6.92003 5.25883 5.90247 5.51476 4.87873C5.7849 3.79817 6.32042 2.86655 6.77772 2.21327C6.80654 2.17209 6.83511 2.13194 6.86335 2.09284ZM6.07977 7.57578C6.14606 6.87264 6.26663 5.99438 6.48491 5.12127C6.71476 4.20183 7.17924 3.38345 7.59695 2.78673C7.74317 2.57785 7.88188 2.39864 7.99983 2.25453C8.11779 2.39864 8.2565 2.57785 8.40272 2.78673C8.82043 3.38345 9.2849 4.20183 9.51476 5.12127C9.73304 5.99438 9.85361 6.87264 9.9199 7.57578C9.86561 7.53874 9.80899 7.50306 9.74983 7.46891C9.21777 7.16172 8.61421 7 7.99983 7C7.38546 7 6.7819 7.16172 6.24983 7.46891C6.19068 7.50306 6.13406 7.53874 6.07977 7.57578ZM10.9335 7.68314C10.869 6.92003 10.7408 5.90246 10.4849 4.87873C10.2148 3.79817 9.67924 2.86655 9.22195 2.21327C9.19313 2.17209 9.16455 2.13194 9.13632 2.09284C10.5715 2.32897 11.9078 3.00847 12.9496 4.05025C13.909 5.00966 14.5611 6.2189 14.8427 7.52505C14.8124 7.50591 14.7815 7.48718 14.7498 7.46891C14.2178 7.16172 13.6142 7 12.9998 7C12.3855 7 11.7819 7.16172 11.2498 7.46891C11.1354 7.53499 11.0304 7.60674 10.9335 7.68314ZM7.49984 1.01563C5.56057 1.13699 3.72499 1.96114 2.34298 3.34314C1.03122 4.65491 0.222054 6.3753 0.0393974 8.20513C0.0017287 8.58249 0.253825 8.84478 0.517287 8.93025C0.768044 9.01161 1.08731 8.95935 1.3005 8.71181C1.43006 8.56137 1.57358 8.4367 1.74983 8.33494C2.12988 8.11552 2.56099 8 2.99983 8C3.43868 8 3.86979 8.11552 4.24983 8.33494C4.59309 8.53312 4.81967 8.82192 5.06682 9.25L5.49984 10L5.93285 9.25C6.18 8.82192 6.40658 8.53312 6.74983 8.33494C6.98385 8.19983 7.23722 8.10412 7.49983 8.05051V13.5C7.49983 13.8978 7.3418 14.2794 7.06049 14.5607C6.77919 14.842 6.39766 15 5.99983 15C5.60201 15 5.22048 14.842 4.93917 14.5607C4.65787 14.2794 4.49983 13.8978 4.49983 13.5H3.49983C3.49983 14.163 3.76323 14.7989 4.23207 15.2678C4.70091 15.7366 5.33679 16 5.99983 16C6.66288 16 7.29876 15.7366 7.7676 15.2678C8.23644 14.7989 8.49983 14.163 8.49983 13.5V8.05051C8.76245 8.10412 9.01582 8.19983 9.24983 8.33494C9.59309 8.53312 9.81967 8.82192 10.0668 9.25L10.4998 10L10.9328 9.25C11.18 8.82192 11.4066 8.53312 11.7498 8.33494C12.1299 8.11552 12.561 8 12.9998 8C13.4387 8 13.8698 8.11552 14.2498 8.33494C14.4261 8.4367 14.5696 8.56136 14.6992 8.71181C14.9124 8.95935 15.2316 9.01161 15.4824 8.93025C15.7458 8.84478 15.9979 8.58249 15.9603 8.20513C15.7776 6.3753 14.9685 4.65491 13.6567 3.34315C12.2747 1.96114 10.4391 1.13699 8.49984 1.01563L8.49983 0H7.49983L7.49984 1.01563Z" fill="#2F3744"/>
</svg>
