<svg width="36" height="36" viewBox="0 0 36 36" fill="none" xmlns="http://www.w3.org/2000/svg">
<g clip-path="url(#clip0_4586_144558)">
<rect width="36" height="36" rx="6" fill="#1A1F26"/>
<path fill-rule="evenodd" clip-rule="evenodd" d="M18 28C23.5228 28 28 23.5228 28 18C28 12.4772 23.5228 8 18 8C12.4772 8 8 12.4772 8 18C8 20.1435 8.67443 22.1295 9.82267 23.7574L9.06172 26.5973C8.9621 26.9691 9.3023 27.3093 9.67409 27.2097L12.6083 26.4235C14.1641 27.4213 16.0145 28 18 28Z" fill="#A3A3A3"/>
<path d="M18.2144 13.6629C18.17 13.5856 18.0961 13.5238 17.9926 13.5238C17.9039 13.5238 17.8152 13.5856 17.7708 13.6629L16.6177 16.1206L14.0304 16.5225C13.9417 16.5379 13.8678 16.5998 13.8382 16.6925C13.8086 16.7852 13.8382 16.878 13.8973 16.9553L15.775 18.8719L15.3314 21.5769C15.3166 21.6697 15.3462 21.7624 15.4349 21.8242C15.4793 21.8552 15.5236 21.8706 15.5828 21.8706C15.6271 21.8706 15.6567 21.8552 15.701 21.8397L18.0222 20.5568L20.3285 21.8242C20.3581 21.8397 20.4025 21.8552 20.4468 21.8552C20.5799 21.8552 20.6834 21.747 20.6834 21.6078C20.6834 21.5769 20.6834 21.5615 20.6686 21.5306L20.2251 18.8565L22.1027 16.9398C22.1618 16.878 22.1914 16.7698 22.1618 16.677C22.1322 16.5843 22.0583 16.5225 21.9696 16.507L19.3823 16.1206L18.2144 13.6629Z" fill="#1A1F26"/>
</g>
<defs>
<clipPath id="clip0_4586_144558">
<rect width="36" height="36" rx="6" fill="white"/>
</clipPath>
</defs>
</svg>
